<svg xmlns="http://www.w3.org/2000/svg" xmlns:xlink="http://www.w3.org/1999/xlink" width="500" zoomAndPan="magnify" viewBox="0 0 375 374.999991" height="500" preserveAspectRatio="xMidYMid meet" version="1.2"><defs><clipPath id="967ab5ce09"><path d="M 39 93 L 285 93 L 285 335 L 39 335 Z M 39 93 "/></clipPath><clipPath id="8a8eb2c80c"><path d="M -9.953125 120.859375 L 286.300781 73.589844 L 322.460938 300.222656 L 26.207031 347.492188 Z M -9.953125 120.859375 "/></clipPath><clipPath id="8c64b4facf"><path d="M -9.953125 120.859375 L 286.300781 73.589844 L 322.460938 300.222656 L 26.207031 347.492188 Z M -9.953125 120.859375 "/></clipPath><clipPath id="fb4749a470"><path d="M 26 89 L 289 89 L 289 348 L 26 348 Z M 26 89 "/></clipPath><clipPath id="fb81eeebe9"><path d="M -9.953125 120.859375 L 286.300781 73.589844 L 322.460938 300.222656 L 26.207031 347.492188 Z M -9.953125 120.859375 "/></clipPath><clipPath id="a597343a67"><path d="M -9.953125 120.859375 L 286.300781 73.589844 L 322.460938 300.222656 L 26.207031 347.492188 Z M -9.953125 120.859375 "/></clipPath><clipPath id="19464d02f0"><path d="M -9.902344 120.851562 L 285.773438 73.671875 L 321.933594 300.300781 L 26.257812 347.476562 Z M -9.902344 120.851562 "/></clipPath></defs><g id="8de4030edf"><path style=" stroke:none;fill-rule:nonzero;fill:#fd2902;fill-opacity:1;" d="M 93.796875 -0.046875 C 42.023438 -0.046875 0.046875 41.929688 0.046875 93.703125 L 0.046875 281.203125 C 0.046875 332.976562 42.023438 374.953125 93.796875 374.953125 L 281.296875 374.953125 C 333.070312 374.953125 375.046875 332.976562 375.046875 281.203125 L 375.046875 93.703125 C 375.046875 41.929688 333.070312 -0.046875 281.296875 -0.046875 Z M 93.796875 -0.046875 "/><g clip-rule="nonzero" clip-path="url(#967ab5ce09)"><g clip-rule="nonzero" clip-path="url(#8a8eb2c80c)"><g clip-rule="nonzero" clip-path="url(#8c64b4facf)"><path style=" stroke:none;fill-rule:nonzero;fill:#fffffe;fill-opacity:1;" d="M 179.09375 127.78125 L 151.296875 99.554688 L 284.519531 93.140625 L 276.066406 226.25 L 248.269531 198.027344 L 39 334.929688 L 179.09375 127.78125 "/></g></g></g><g clip-rule="nonzero" clip-path="url(#fb4749a470)"><g clip-rule="nonzero" clip-path="url(#fb81eeebe9)"><g clip-rule="nonzero" clip-path="url(#a597343a67)"><g clip-rule="nonzero" clip-path="url(#19464d02f0)"><path style=" stroke:none;fill-rule:nonzero;fill:#fffffe;fill-opacity:1;" d="M 143.253906 96.414062 L 174.554688 128.195312 L 26.257812 347.476562 L 247.785156 202.554688 L 279.085938 234.339844 L 288.289062 89.429688 Z M 159.335938 102.699219 L 280.753906 96.851562 L 273.050781 218.160156 L 252.808594 197.609375 L 248.757812 193.496094 L 243.925781 196.65625 L 51.742188 322.382812 L 180.394531 132.144531 L 183.628906 127.363281 L 179.578125 123.25 L 159.335938 102.699219 "/></g></g></g></g></g></svg>