<svg xmlns="http://www.w3.org/2000/svg" xmlns:xlink="http://www.w3.org/1999/xlink" width="500" zoomAndPan="magnify" viewBox="0 0 375 374.999991" height="500" preserveAspectRatio="xMidYMid meet" version="1.2"><g id="04e1128704"><path style=" stroke:none;fill-rule:nonzero;fill:#ffffff;fill-opacity:1;" d="M 283.933594 1.273438 L 91.484375 1.273438 C 41.660156 1.273438 1.273438 41.660156 1.273438 91.484375 L 1.273438 283.933594 C 1.273438 333.757812 41.660156 374.144531 91.484375 374.144531 L 283.933594 374.144531 C 333.757812 374.144531 374.144531 333.757812 374.144531 283.933594 L 374.144531 91.484375 C 374.144531 41.660156 333.757812 1.273438 283.933594 1.273438 Z M 283.933594 1.273438 "/><path style=" stroke:none;fill-rule:evenodd;fill:#042582;fill-opacity:1;" d="M 239.453125 88.542969 C 246.980469 84.011719 256.589844 78.394531 264.9375 73.871094 C 269.175781 71.574219 273.066406 69.570312 276.183594 68.132812 C 277.742188 67.417969 279.085938 66.851562 280.164062 66.46875 C 281.304688 66.058594 281.957031 65.925781 282.214844 65.917969 C 284.9375 65.828125 286.375 64.082031 286.960938 62.550781 C 287.574219 60.945312 287.53125 58.992188 286.734375 57.464844 C 286.332031 56.699219 285.695312 55.953125 284.726562 55.453125 C 283.707031 54.933594 282.457031 54.753906 281.097656 54.980469 C 279.796875 55.199219 278.445312 55.78125 277.050781 56.695312 C 275.648438 57.609375 274.121094 58.910156 272.457031 60.664062 C 262.261719 71.402344 246.402344 79.570312 239.789062 82.289062 L 239.539062 82.394531 L 239.359375 82.550781 C 239.007812 82.867188 238.503906 83.265625 237.898438 83.667969 C 237.046875 83.382812 236.082031 83.335938 235.234375 83.390625 C 233.886719 83.476562 232.460938 83.832031 231.207031 84.320312 C 229.957031 84.808594 228.753906 85.480469 227.941406 86.265625 C 227.136719 87.042969 226.550781 88.109375 227.113281 89.230469 L 227.117188 89.234375 C 227.121094 89.238281 227.125 89.246094 227.128906 89.261719 C 227.132812 89.28125 227.140625 89.308594 227.148438 89.347656 C 227.164062 89.425781 227.175781 89.53125 227.179688 89.667969 C 227.1875 89.941406 227.164062 90.292969 227.101562 90.734375 C 226.972656 91.609375 226.699219 92.746094 226.304688 94.089844 C 225.519531 96.777344 224.269531 100.210938 222.804688 103.914062 C 220.652344 109.359375 218.042969 115.347656 215.792969 120.3125 C 207.550781 117.539062 198.222656 115.996094 187.777344 115.960938 L 187.402344 115.960938 C 177.035156 115.996094 167.769531 117.515625 159.574219 120.253906 C 157.339844 115.320312 154.769531 109.410156 152.640625 104.027344 C 151.175781 100.328125 149.925781 96.890625 149.140625 94.207031 C 148.746094 92.859375 148.472656 91.722656 148.347656 90.847656 C 148.285156 90.410156 148.257812 90.054688 148.265625 89.78125 C 148.269531 89.644531 148.28125 89.539062 148.296875 89.460938 C 148.304688 89.425781 148.3125 89.394531 148.320312 89.375 L 148.320312 89.367188 L 148.324219 89.359375 L 148.328125 89.347656 L 148.328125 89.34375 C 148.894531 88.222656 148.308594 87.160156 147.503906 86.382812 C 146.691406 85.59375 145.488281 84.925781 144.238281 84.4375 C 142.988281 83.945312 141.558594 83.589844 140.214844 83.503906 C 139.363281 83.449219 138.398438 83.5 137.546875 83.78125 C 136.941406 83.378906 136.4375 82.984375 136.082031 82.667969 L 135.90625 82.507812 L 135.65625 82.40625 C 129.042969 79.6875 113.183594 71.519531 102.988281 60.777344 C 101.324219 59.027344 99.796875 57.726562 98.394531 56.808594 C 97 55.898438 95.652344 55.316406 94.347656 55.097656 C 92.988281 54.867188 91.738281 55.046875 90.71875 55.570312 C 89.753906 56.066406 89.113281 56.8125 88.710938 57.582031 C 87.917969 59.105469 87.871094 61.0625 88.484375 62.667969 C 89.070312 64.199219 90.507812 65.945312 93.230469 66.03125 C 93.488281 66.039062 94.140625 66.175781 95.285156 66.582031 C 96.363281 66.96875 97.703125 67.53125 99.261719 68.25 C 102.378906 69.683594 106.269531 71.6875 110.507812 73.984375 C 118.851562 78.507812 128.464844 84.128906 135.992188 88.65625 C 136.566406 89.8125 137.554688 91.191406 139.039062 92.824219 C 147.738281 102.4375 151.785156 114.152344 152.710938 118.761719 L 152.75 118.960938 L 152.882812 119.136719 C 153.335938 119.730469 153.929688 120.714844 154.207031 121.691406 C 154.261719 121.882812 154.300781 122.0625 154.328125 122.230469 C 139.863281 128.328125 129.125 138.496094 121.921875 151.003906 C 106.6875 157.140625 95.660156 175.105469 95.660156 196.3125 C 95.660156 216.789062 105.941406 234.246094 120.363281 240.949219 C 126.671875 255.28125 135.390625 267.847656 144.34375 277.882812 C 143.425781 284.355469 143.46875 291.136719 143.863281 297.648438 C 144.175781 302.753906 145.054688 307.542969 147.4375 312.101562 C 149.023438 315.136719 151.257812 318.796875 154.417969 320.398438 C 154.871094 320.628906 154.90625 320.570312 154.746094 320.273438 C 153.742188 318.4375 152.898438 316.320312 152.519531 314.269531 C 151.789062 310.320312 151.960938 306.285156 152.425781 302.3125 C 152.429688 302.273438 152.433594 302.234375 152.4375 302.195312 L 152.4375 302.1875 L 152.445312 302.140625 L 152.449219 302.089844 C 152.507812 301.507812 152.570312 300.929688 152.917969 301.824219 C 152.957031 301.921875 153.003906 302.097656 153.058594 302.3125 L 153.0625 302.332031 C 153.242188 303.007812 153.519531 304.050781 153.902344 304.09375 C 154.097656 304.113281 154.234375 303.863281 154.332031 303.683594 C 154.335938 303.675781 154.335938 303.667969 154.34375 303.660156 C 154.546875 303.285156 154.707031 302.890625 154.867188 302.496094 L 154.886719 302.445312 C 154.996094 302.175781 155.105469 301.90625 155.230469 301.648438 C 156.664062 298.636719 158.316406 295.734375 160.367188 293.15625 C 164.804688 296.683594 168.945312 299.382812 172.46875 301.144531 C 172.46875 301.144531 181.617188 306.332031 187.996094 306.226562 C 194.074219 306.128906 202.714844 301.144531 202.714844 301.144531 C 206.320312 299.339844 210.570312 296.554688 215.132812 292.902344 C 217.273438 295.542969 218.992188 298.535156 220.472656 301.648438 C 220.605469 301.921875 220.71875 302.210938 220.835938 302.496094 L 220.84375 302.519531 C 221.003906 302.90625 221.160156 303.292969 221.363281 303.660156 L 221.371094 303.683594 C 221.46875 303.863281 221.609375 304.113281 221.800781 304.09375 C 222.191406 304.046875 222.464844 302.988281 222.644531 302.3125 C 222.703125 302.097656 222.746094 301.921875 222.78125 301.828125 C 223.136719 300.933594 223.195312 301.507812 223.253906 302.089844 C 223.261719 302.167969 223.269531 302.238281 223.277344 302.3125 C 223.742188 306.285156 223.917969 310.320312 223.1875 314.269531 C 222.808594 316.320312 221.960938 318.4375 220.957031 320.273438 C 220.796875 320.570312 220.832031 320.628906 221.285156 320.398438 C 224.449219 318.796875 226.679688 315.136719 228.265625 312.101562 C 230.648438 307.542969 231.527344 302.753906 231.839844 297.652344 C 232.234375 291.117188 232.277344 284.320312 231.351562 277.832031 C 231.332031 277.679688 231.308594 277.527344 231.28125 277.378906 C 239.960938 267.5625 248.382812 255.375 254.566406 241.515625 C 269.65625 235.269531 280.546875 217.394531 280.546875 196.316406 C 280.546875 174.507812 268.882812 156.125 252.972656 150.511719 C 245.8125 138.300781 235.246094 128.359375 221.09375 122.328125 C 221.113281 122.105469 221.160156 121.851562 221.238281 121.578125 C 221.515625 120.601562 222.109375 119.613281 222.5625 119.019531 L 222.695312 118.847656 L 222.734375 118.648438 C 223.660156 114.035156 227.707031 102.320312 236.40625 92.710938 C 237.886719 91.074219 238.878906 89.695312 239.453125 88.542969 Z M 165.230469 196.3125 C 165.230469 220.609375 149.796875 237.84375 133.457031 237.84375 C 117.121094 237.84375 101.6875 220.609375 101.6875 196.3125 C 101.6875 172.019531 117.121094 154.785156 133.457031 154.785156 C 149.796875 154.785156 165.230469 172.019531 165.230469 196.3125 Z M 274.523438 196.316406 C 274.523438 220.613281 259.089844 237.847656 242.75 237.847656 C 226.410156 237.847656 210.976562 220.613281 210.976562 196.316406 C 210.976562 172.023438 226.410156 154.789062 242.75 154.789062 C 259.089844 154.789062 274.523438 172.023438 274.523438 196.316406 Z M 274.523438 196.316406 "/></g></svg>